name ./resultDataOpenSim/trcMotMarkerGrf/sub09/grf-04-09.mot
datacolumns 19
datarows 12
range 0.50800000 0.55200000
endheader

                time	     ground_force_vx	     ground_force_vy	     ground_force_vz	     ground_force_px	     ground_force_py	     ground_force_pz	   l_ground_force_vx	   l_ground_force_vy	   l_ground_force_vz	   l_ground_force_px	   l_ground_force_py	   l_ground_force_pz	     ground_torque_x	     ground_torque_y	     ground_torque_z	   l_ground_torque_x	   l_ground_torque_y	   l_ground_torque_z	
          0.50800000	         39.57105896	        401.96626193	        -13.20969556	         -0.67396652	          0.00000000	          0.10165679	          0.00000000	          0.00000000	          0.00000000	          0.00000000	          0.00000000	          0.00000000	          0.00000000	          3.08821826	          0.00000000	          0.00000000	          0.00000000	          0.00000000	
          0.51200000	         41.26254898	        410.17572366	        -13.90787227	         -0.67267122	          0.00000000	          0.10206259	          0.00000000	          0.00000000	          0.00000000	          0.00000000	          0.00000000	          0.00000000	          0.00000000	          3.21126856	          0.00000000	          0.00000000	          0.00000000	          0.00000000	
          0.51600000	         42.96919041	        418.60085004	        -14.94386233	         -0.67114083	          0.00000000	          0.10254178	          0.00000000	          0.00000000	          0.00000000	          0.00000000	          0.00000000	          0.00000000	          0.00000000	          3.31370568	          0.00000000	          0.00000000	          0.00000000	          0.00000000	
          0.52000000	         44.75662181	        427.18061932	        -16.22864725	         -0.66942084	          0.00000000	          0.10309138	          0.00000000	          0.00000000	          0.00000000	          0.00000000	          0.00000000	          0.00000000	          0.00000000	          3.41455635	          0.00000000	          0.00000000	          0.00000000	          0.00000000	
          0.52400000	         46.64859070	        435.93220972	        -17.67053491	         -0.66756862	          0.00000000	          0.10368692	          0.00000000	          0.00000000	          0.00000000	          0.00000000	          0.00000000	          0.00000000	          0.00000000	          3.53157342	          0.00000000	          0.00000000	          0.00000000	          0.00000000	
          0.52800000	         48.62974865	        444.90791124	        -19.20046673	         -0.66563619	          0.00000000	          0.10430387	          0.00000000	          0.00000000	          0.00000000	          0.00000000	          0.00000000	          0.00000000	          0.00000000	          3.67566149	          0.00000000	          0.00000000	          0.00000000	          0.00000000	
          0.53200000	         50.66151769	        454.16146207	        -20.78790187	         -0.66365241	          0.00000000	          0.10492970	          0.00000000	          0.00000000	          0.00000000	          0.00000000	          0.00000000	          0.00000000	          0.00000000	          3.84713924	          0.00000000	          0.00000000	          0.00000000	          0.00000000	
          0.53600000	         52.70728547	        463.74214040	        -22.44712187	         -0.66162775	          0.00000000	          0.10555402	          0.00000000	          0.00000000	          0.00000000	          0.00000000	          0.00000000	          0.00000000	          0.00000000	          4.03474244	          0.00000000	          0.00000000	          0.00000000	          0.00000000	
          0.54000000	         54.75779545	        473.70450996	        -24.23002994	         -0.65958561	          0.00000000	          0.10616360	          0.00000000	          0.00000000	          0.00000000	          0.00000000	          0.00000000	          0.00000000	          0.00000000	          4.21756863	          0.00000000	          0.00000000	          0.00000000	          0.00000000	
          0.54400000	         56.84581464	        484.11391482	        -26.20466990	         -0.65757473	          0.00000000	          0.10673804	          0.00000000	          0.00000000	          0.00000000	          0.00000000	          0.00000000	          0.00000000	          0.00000000	          4.36945368	          0.00000000	          0.00000000	          0.00000000	          0.00000000	
          0.54800000	         59.04577404	        495.03819647	        -28.42785617	         -0.65565478	          0.00000000	          0.10725306	          0.00000000	          0.00000000	          0.00000000	          0.00000000	          0.00000000	          0.00000000	          0.00000000	          4.46474637	          0.00000000	          0.00000000	          0.00000000	          0.00000000	
          0.55200000	         61.46238768	        506.53100963	        -30.92123702	         -0.65386490	          0.00000000	          0.10769491	          0.00000000	          0.00000000	          0.00000000	          0.00000000	          0.00000000	          0.00000000	          0.00000000	          4.48421768	          0.00000000	          0.00000000	          0.00000000	          0.00000000	
